<?xml version="1.0" encoding="UTF-8"?>
<svg xmlns="http://www.w3.org/2000/svg" xmlns:xlink="http://www.w3.org/1999/xlink" width="16px" height="16px" viewBox="0 0 16 16" version="1.1">
<g id="surface1">
<path style=" stroke:none;fill-rule:nonzero;fill:rgb(94.901961%,94.901961%,94.901961%);fill-opacity:1;" d="M 8 16 C 12.417969 16 16 12.417969 16 8 C 16 3.582031 12.417969 0 8 0 C 3.582031 0 0 3.582031 0 8 C 0 12.417969 3.582031 16 8 16 Z M 8 16 "/>
<path style=" stroke:none;fill-rule:nonzero;fill:rgb(20%,20%,20%);fill-opacity:1;" d="M 4.386719 20.140625 L 3.238281 20.140625 L 3.238281 19.1875 C 3.238281 17.914062 3.609375 16.816406 4.3125 16.007812 C 5 15.21875 5.949219 14.785156 6.988281 14.785156 L 6.988281 15.933594 C 5.457031 15.933594 4.386719 17.273438 4.386719 19.1875 Z M 4.386719 20.140625 "/>
<path style=" stroke:none;fill-rule:nonzero;fill:rgb(20%,20%,20%);fill-opacity:1;" d="M 11.613281 20.140625 L 12.761719 20.140625 L 12.761719 19.1875 C 12.761719 17.914062 12.390625 16.816406 11.6875 16.007812 C 11 15.21875 10.050781 14.785156 9.011719 14.785156 L 9.011719 15.933594 C 10.542969 15.933594 11.613281 17.273438 11.613281 19.1875 Z M 11.613281 20.140625 "/>
<path style=" stroke:none;fill-rule:nonzero;fill:rgb(20%,20%,20%);fill-opacity:1;" d="M 10.203125 15.429688 L 10.203125 19.488281 L 5.796875 19.488281 L 5.796875 15.429688 C 5.796875 14.917969 6.535156 14.507812 7.046875 14.507812 L 8.953125 14.507812 C 9.464844 14.507812 10.203125 14.917969 10.203125 15.429688 Z M 10.203125 15.429688 "/>
<path style=" stroke:none;fill-rule:nonzero;fill:rgb(20%,20%,20%);fill-opacity:1;" d="M 6.8125 14.859375 L 9.1875 14.859375 C 9.4375 14.859375 9.636719 14.660156 9.636719 14.410156 C 9.636719 14.160156 9.4375 13.960938 9.1875 13.960938 L 6.8125 13.960938 C 6.5625 13.960938 6.363281 14.160156 6.363281 14.410156 C 6.363281 14.660156 6.5625 14.859375 6.8125 14.859375 Z M 6.8125 14.859375 "/>
<path style=" stroke:none;fill-rule:nonzero;fill:rgb(20%,20%,20%);fill-opacity:1;" d="M 10.769531 9.375 C 11.164062 9.445312 11.570312 9.355469 11.898438 9.125 C 12.226562 8.894531 12.449219 8.542969 12.519531 8.148438 L 12.785156 6.636719 C 12.851562 6.242188 12.761719 5.835938 12.53125 5.507812 C 12.300781 5.179688 11.949219 4.957031 11.554688 4.886719 C 11.160156 4.816406 10.753906 4.910156 10.425781 5.140625 C 10.097656 5.367188 9.875 5.71875 9.804688 6.113281 L 9.539062 7.625 C 9.472656 8.019531 9.5625 8.425781 9.792969 8.753906 C 10.023438 9.082031 10.375 9.304688 10.769531 9.375 Z M 10.769531 9.375 "/>
<path style=" stroke:none;fill-rule:nonzero;fill:rgb(20%,20%,20%);fill-opacity:1;" d="M 5.621094 9.398438 C 6.019531 9.351562 6.382812 9.152344 6.632812 8.839844 C 6.882812 8.527344 7 8.128906 6.957031 7.730469 L 6.789062 6.203125 C 6.746094 5.804688 6.542969 5.441406 6.230469 5.191406 C 5.921875 4.941406 5.519531 4.824219 5.121094 4.867188 C 4.722656 4.910156 4.359375 5.113281 4.109375 5.425781 C 3.859375 5.738281 3.742188 6.136719 3.785156 6.535156 L 3.953125 8.058594 C 3.996094 8.457031 4.195312 8.820312 4.507812 9.074219 C 4.820312 9.324219 5.222656 9.441406 5.621094 9.398438 Z M 5.621094 9.398438 "/>
<path style=" stroke:none;fill-rule:nonzero;fill:rgb(20%,20%,20%);fill-opacity:1;" d="M 9.324219 10.25 C 11.050781 10.25 12.449219 8.847656 12.449219 7.121094 L 12.449219 4.652344 C 12.449219 2.925781 11.050781 1.527344 9.324219 1.527344 C 7.597656 1.527344 6.199219 2.925781 6.199219 4.652344 L 6.199219 7.121094 C 6.199219 8.847656 7.597656 10.25 9.324219 10.25 Z M 9.324219 10.25 "/>
<path style=" stroke:none;fill-rule:nonzero;fill:rgb(100%,100%,100%);fill-opacity:1;" d="M 8 13.625 C 10.128906 13.625 11.871094 11.882812 11.871094 9.753906 L 11.871094 7.914062 C 11.871094 5.785156 10.128906 4.1875 8 4.1875 C 5.871094 4.1875 4.128906 5.785156 4.128906 7.914062 L 4.128906 9.753906 C 4.128906 11.882812 5.871094 13.625 8 13.625 Z M 8 13.625 "/>
<path style=" stroke:none;fill-rule:nonzero;fill:rgb(100%,100%,100%);fill-opacity:1;" d="M 12.554688 10.5 C 12.988281 10.125 13.03125 9.464844 12.652344 9.03125 C 12.277344 8.601562 11.617188 8.554688 11.1875 8.933594 C 10.753906 9.3125 10.707031 9.96875 11.085938 10.402344 C 11.464844 10.835938 12.121094 10.878906 12.554688 10.5 Z M 12.554688 10.5 "/>
<path style=" stroke:none;fill-rule:nonzero;fill:rgb(100%,100%,100%);fill-opacity:1;" d="M 5.074219 10.152344 C 5.316406 9.628906 5.085938 9.011719 4.5625 8.773438 C 4.042969 8.53125 3.421875 8.761719 3.183594 9.285156 C 2.945312 9.808594 3.171875 10.425781 3.695312 10.664062 C 4.21875 10.90625 4.835938 10.675781 5.074219 10.152344 Z M 5.074219 10.152344 "/>
<path style=" stroke:none;fill-rule:nonzero;fill:rgb(20%,20%,20%);fill-opacity:1;" d="M 7.71875 7.726562 C 6.167969 7.726562 4.773438 7.054688 3.773438 5.832031 C 3.621094 5.644531 3.507812 5.429688 3.4375 5.199219 C 3.367188 4.96875 3.347656 4.726562 3.371094 4.484375 C 3.394531 4.246094 3.464844 4.015625 3.578125 3.800781 C 3.695312 3.589844 3.847656 3.402344 4.035156 3.25 C 4.222656 3.097656 4.4375 2.984375 4.667969 2.914062 C 4.898438 2.84375 5.140625 2.824219 5.378906 2.847656 C 5.617188 2.871094 5.851562 2.941406 6.0625 3.054688 C 6.277344 3.171875 6.464844 3.324219 6.617188 3.511719 C 6.925781 3.890625 7.300781 4.070312 7.765625 4.058594 C 8.363281 4.042969 8.839844 3.71875 8.933594 3.585938 C 9.074219 3.390625 9.253906 3.222656 9.460938 3.097656 C 9.667969 2.96875 9.894531 2.882812 10.132812 2.847656 C 10.375 2.808594 10.617188 2.816406 10.851562 2.875 C 11.089844 2.929688 11.308594 3.035156 11.503906 3.175781 C 11.699219 3.320312 11.867188 3.5 11.992188 3.707031 C 12.117188 3.914062 12.199219 4.144531 12.234375 4.382812 C 12.273438 4.621094 12.261719 4.867188 12.203125 5.101562 C 12.144531 5.335938 12.039062 5.558594 11.894531 5.75 C 11.050781 6.90625 9.46875 7.679688 7.859375 7.722656 C 7.8125 7.726562 7.765625 7.726562 7.71875 7.726562 Z M 7.71875 7.726562 "/>
<path style=" stroke:none;fill-rule:nonzero;fill:rgb(20%,20%,20%);fill-opacity:1;" d="M 10.324219 9.992188 C 10.53125 9.785156 10.53125 9.449219 10.324219 9.242188 C 10.117188 9.035156 9.78125 9.035156 9.574219 9.242188 C 9.367188 9.449219 9.367188 9.785156 9.574219 9.992188 C 9.78125 10.203125 10.117188 10.203125 10.324219 9.992188 Z M 10.324219 9.992188 "/>
<path style=" stroke:none;fill-rule:nonzero;fill:rgb(20%,20%,20%);fill-opacity:1;" d="M 6.171875 10.136719 C 6.457031 10.066406 6.636719 9.78125 6.566406 9.496094 C 6.5 9.210938 6.214844 9.035156 5.929688 9.101562 C 5.644531 9.167969 5.464844 9.453125 5.535156 9.742188 C 5.601562 10.027344 5.886719 10.203125 6.171875 10.136719 Z M 6.171875 10.136719 "/>
<path style=" stroke:none;fill-rule:nonzero;fill:rgb(94.901961%,94.901961%,94.901961%);fill-opacity:1;" d="M 9.300781 10.984375 L 6.699219 10.984375 C 6.699219 10.984375 7.117188 12.058594 8 12.058594 C 8.882812 12.058594 9.300781 10.984375 9.300781 10.984375 Z M 9.300781 10.984375 "/>
<path style=" stroke:none;fill-rule:nonzero;fill:rgb(20%,20%,20%);fill-opacity:1;" d="M 9.695312 8.683594 L 10.203125 8.71875 C 10.257812 8.722656 10.3125 8.707031 10.355469 8.667969 C 10.398438 8.632812 10.421875 8.582031 10.425781 8.527344 C 10.429688 8.46875 10.410156 8.417969 10.375 8.375 C 10.339844 8.332031 10.289062 8.308594 10.234375 8.304688 L 9.726562 8.269531 C 9.671875 8.265625 9.617188 8.28125 9.574219 8.320312 C 9.535156 8.355469 9.507812 8.40625 9.503906 8.460938 C 9.5 8.515625 9.519531 8.570312 9.554688 8.613281 C 9.589844 8.65625 9.640625 8.679688 9.695312 8.683594 Z M 9.695312 8.683594 "/>
<path style=" stroke:none;fill-rule:nonzero;fill:rgb(20%,20%,20%);fill-opacity:1;" d="M 6.304688 8.683594 L 5.796875 8.71875 C 5.742188 8.722656 5.6875 8.707031 5.644531 8.667969 C 5.601562 8.632812 5.578125 8.582031 5.574219 8.527344 C 5.570312 8.46875 5.589844 8.417969 5.625 8.375 C 5.660156 8.332031 5.710938 8.308594 5.765625 8.304688 L 6.273438 8.269531 C 6.328125 8.265625 6.382812 8.28125 6.425781 8.320312 C 6.464844 8.355469 6.492188 8.40625 6.496094 8.460938 C 6.5 8.515625 6.480469 8.570312 6.445312 8.613281 C 6.410156 8.65625 6.359375 8.679688 6.304688 8.683594 Z M 6.304688 8.683594 "/>
<path style=" stroke:none;fill-rule:nonzero;fill:rgb(100%,100%,100%);fill-opacity:1;" d="M 8.1875 15.21875 L 7.8125 15.21875 C 7.644531 15.21875 7.484375 15.152344 7.367188 15.035156 C 7.246094 14.914062 7.179688 14.753906 7.179688 14.585938 L 7.179688 13.09375 L 8.820312 13.09375 L 8.820312 14.585938 C 8.820312 14.667969 8.800781 14.75 8.769531 14.828125 C 8.738281 14.90625 8.691406 14.976562 8.632812 15.035156 C 8.574219 15.09375 8.503906 15.140625 8.429688 15.171875 C 8.351562 15.203125 8.269531 15.21875 8.1875 15.21875 Z M 8.1875 15.21875 "/>
<path style=" stroke:none;fill-rule:nonzero;fill:rgb(94.901961%,94.901961%,94.901961%);fill-opacity:1;" d="M 5.152344 20.988281 L 5.152344 16.019531 C 5.152344 14.453125 7.179688 14.308594 7.179688 14.308594 L 7.15625 20.992188 Z M 5.152344 20.988281 "/>
<path style=" stroke:none;fill-rule:nonzero;fill:rgb(94.901961%,94.901961%,94.901961%);fill-opacity:1;" d="M 10.847656 20.988281 L 10.847656 16.019531 C 10.847656 14.453125 8.820312 14.308594 8.820312 14.308594 L 8.84375 20.992188 Z M 10.847656 20.988281 "/>
</g>
</svg>
