<svg width="72" height="72" viewBox="0 0 72 72" fill="none" xmlns="http://www.w3.org/2000/svg">
<path d="M60.951 13.0795C56.362 10.9738 51.4409 9.42247 46.2957 8.53394C46.202 8.5168 46.1083 8.55965 46.0601 8.64536C45.4272 9.77103 44.7262 11.2395 44.2353 12.3938C38.7012 11.5652 33.1955 11.5652 27.7749 12.3938C27.284 11.2138 26.5574 9.77103 25.9217 8.64536C25.8735 8.56251 25.7798 8.51965 25.6862 8.53394C20.5437 9.41961 15.6227 10.971 11.0308 13.0795C10.9911 13.0966 10.957 13.1252 10.9343 13.1623C1.60018 27.1074 -0.95685 40.7097 0.29754 54.1434C0.303216 54.2091 0.34011 54.2719 0.391194 54.3119C6.54963 58.8346 12.5151 61.5802 18.3698 63.4001C18.4635 63.4287 18.5628 63.3944 18.6224 63.3172C20.0074 61.4259 21.2419 59.4317 22.3005 57.3347C22.3629 57.2118 22.3033 57.0661 22.1756 57.0175C20.2174 56.2747 18.3528 55.369 16.5592 54.3405C16.4173 54.2576 16.406 54.0548 16.5365 53.9577C16.914 53.6748 17.2914 53.3805 17.6518 53.0834C17.7171 53.0291 17.8079 53.0177 17.8846 53.052C29.6679 58.4317 42.4246 58.4317 54.0689 53.052C54.1455 53.0148 54.2363 53.0263 54.3045 53.0805C54.6649 53.3777 55.0423 53.6748 55.4226 53.9577C55.5532 54.0548 55.5447 54.2576 55.4028 54.3405C53.6091 55.389 51.7446 56.2747 49.7835 57.0147C49.6558 57.0632 49.5991 57.2118 49.6615 57.3347C50.7428 59.4288 51.9773 61.423 53.3367 63.3144C53.3935 63.3944 53.4956 63.4287 53.5893 63.4001C59.4724 61.5802 65.4379 58.8346 71.5963 54.3119C71.6502 54.2719 71.6843 54.2119 71.69 54.1462C73.1913 38.6155 69.1755 25.1246 61.0447 13.1652C61.0248 13.1252 60.9908 13.0966 60.951 13.0795ZM24.06 45.9637C20.5125 45.9637 17.5894 42.7067 17.5894 38.7069C17.5894 34.7071 20.4558 31.4501 24.06 31.4501C27.6926 31.4501 30.5874 34.7356 30.5306 38.7069C30.5306 42.7067 27.6643 45.9637 24.06 45.9637ZM47.9843 45.9637C44.4368 45.9637 41.5136 42.7067 41.5136 38.7069C41.5136 34.7071 44.38 31.4501 47.9843 31.4501C51.6169 31.4501 54.5116 34.7356 54.4549 38.7069C54.4549 42.7067 51.6169 45.9637 47.9843 45.9637Z" fill="white"/>
</svg>
